<svg xmlns="http://www.w3.org/2000/svg" viewBox="0 0 1403 238" width="1403" height="238"><path fill="#14191f" fill-rule="evenodd" d="M57.5 30L232 29.5L234 30.5L235.5 32L235.5 47L233 49.5L63 49.5L58 51.5L51.5 58L49.5 62L49.5 97L56 105.5L62 108.5L208 108.5L217 112.5L230.5 125L235.5 134L235.5 184L230.5 192L216 205.5L210 208.5L202 209.5L34 209.5L32 208.5L29.5 206L29.5 192L32 189.5L201 189.5L208 186.5L213.5 181L215.5 177L215.5 140L213.5 136L208 130.5L203 128.5L58 128.5L44 121.5L33.5 111L29.5 103L29.5 55L32.5 49L45 36.5L52 31.5L57 30.5ZM312.5 30L326 29.5L329.5 33L329.5 206L327 208.5L318 209.5L314 209.5L309.5 206L309.5 33L312 30.5ZM416.5 30L621 29.5L624.5 33L624.5 47L622 49.5L416 49.5L413.5 47L412.5 42L413.5 32L416 30.5ZM695.5 30L709 29.5L712.5 32L713.5 38L713.5 64L712.5 65L712.5 75L713.5 76L713.5 109L712.5 110L713.5 115L713.5 177L716.5 181L722 186.5L728 189.5L861 189.5L863.5 192L863.5 206L861 208.5L850 208.5L849 209.5L747 209.5L746 208.5L725 209.5L720 208.5L713 204.5L698.5 191L693.5 184L692.5 180L692.5 33L695 30.5ZM943.5 30L1081 29.5L1088 32.5L1107.5 51L1112.5 59L1112.5 180L1109.5 186L1091 204.5L1084 208.5L1075 209.5L1002 209.5L1001 208.5L945 209.5L937 206.5L932 202.5L914.5 185L912.5 181L912.5 59L914.5 55L937 32.5L943 30.5ZM1180.5 30L1206 29.5L1214 32.5L1222.5 41L1335.5 174L1352 190.5L1353.5 189L1353.5 34L1357 29.5L1371 29.5L1373.5 32L1374.5 38L1373.5 206L1371 208.5L1366 209.5L1347 209.5L1336 204.5L1208.5 56L1202 49.5L1199 49.5L1197.5 51L1197.5 206L1195 208.5L1186 209.5L1180 208.5L1177.5 206L1177.5 33L1180 30.5ZM949 49.5L940 56.5L932.5 65L932.5 175L945 187.5L950 189.5L1075 189.5L1080 187.5L1091.5 176L1092.5 174L1092.5 65L1080 51.5L1076 49.5L950 49.5ZM587.5 59L620 58.5L620.5 60L503 141.5L452 178.5L450 179.5L417.5 179L419 176.5L474 137.5L587 59.5ZM414.5 190L622 189.5L624.5 192L624.5 206L622 208.5L613 209.5L417 209.5L412.5 205L413.5 196L412.5 193L414 190.5Z"></path></svg>